<?xml version="1.0" standalone="no"?><!DOCTYPE svg PUBLIC "-//W3C//DTD SVG 1.1//EN" "http://www.w3.org/Graphics/SVG/1.1/DTD/svg11.dtd"><svg t="1551599533521" class="icon" style="" viewBox="0 0 1024 1024" version="1.1" xmlns="http://www.w3.org/2000/svg" p-id="9309" xmlns:xlink="http://www.w3.org/1999/xlink" width="200" height="200"><defs><style type="text/css"></style></defs><path d="M866.7136 792.6784H227.566933l0.2048-585.352533a18.432 18.432 0 0 0-18.944-18.670934h-47.445333a18.670933 18.670933 0 0 0-18.944 18.6368l-0.2048 628.053334v24.337066c0 10.1376 8.226133 18.363733 18.3296 18.363734H866.7136a18.466133 18.466133 0 0 0 18.7392-18.944v-47.445334a18.5344 18.5344 0 0 0-18.7392-18.978133z" p-id="9310"></path><path d="M724.48 934.912H85.367467l0.2048-585.352533a18.432 18.432 0 0 0-18.944-18.670934H19.182933a18.670933 18.670933 0 0 0-18.944 18.6368L0 977.578667v24.337066c0 10.1376 8.226133 18.363733 18.3296 18.363734H724.48a18.466133 18.466133 0 0 0 18.7392-18.944v-47.445334a18.5344 18.5344 0 0 0-18.7392-18.978133z" p-id="9311"></path><path d="M1005.704533 3.754667H302.728533a18.397867 18.397867 0 0 0-18.295466 18.295466v703.010134c0 9.966933 8.192 18.295467 18.295466 18.295466h703.010134c9.966933 0 18.295467-8.192 18.295466-18.295466V22.016a18.432 18.432 0 0 0-18.3296-18.261333zM938.666667 657.988267H369.7664V89.088H938.666667v568.900267z" p-id="9312"></path><path d="M570.0608 505.002667l16.4864 16.4864c7.543467 7.543467 19.490133 7.850667 27.3408 0l16.4864-16.4864 236.885333-236.885334a18.6368 18.6368 0 0 0 0.068267-26.862933l-33.553067-33.553067a19.114667 19.114667 0 0 0-26.862933 0.068267l-206.711467 206.711467-72.977066-72.977067a18.568533 18.568533 0 0 0-26.760534 0.034133l-33.553066 33.553067a19.182933 19.182933 0 0 0-0.034134 26.760533l103.185067 103.150934z" p-id="9313"></path></svg>